<?xml version="1.0" encoding="utf-8"?>
<!-- Generator: Adobe Illustrator 21.1.0, SVG Export Plug-In . SVG Version: 6.00 Build 0)  -->
<svg version="1.1" id="Layer_1" xmlns="http://www.w3.org/2000/svg" xmlns:xlink="http://www.w3.org/1999/xlink" x="0px" y="0px"
	 viewBox="0 0 8 12" style="enable-background:new 0 0 8 12;" xml:space="preserve">
<style type="text/css">
	.st0{fill:#999999;}
</style>
<title>noun_715033_cc</title>
<desc>Created using Figma</desc>
<g id="Canvas" transform="translate(-5238 -2656)">
	<g id="noun_715033_cc">
		<g id="Group">
			<g id="Vector">
				<g transform="translate(5239 2657)">
					<path id="path0_stroke" class="st0" d="M5238.8,2666.8c-0.1,0.1-0.1,0.2,0,0.4c0.1,0.1,0.2,0.1,0.4,0L5238.8,2666.8z
						 M5245,2662l0.2,0.2c0.1,0,0.1-0.1,0.1-0.2s0-0.1-0.1-0.2L5245,2662z M5239.2,2656.8c-0.1-0.1-0.3-0.1-0.4,0
						c-0.1,0.1-0.1,0.3,0,0.4L5239.2,2656.8z M5239.2,2667.2l6-5l-0.3-0.4l-6,5L5239.2,2667.2z M5245.2,2661.8l-6-5l-0.3,0.4l6,5
						L5245.2,2661.8z"/>
				</g>
			</g>
		</g>
	</g>
</g>
</svg>
